<?xml version="1.0" standalone="no"?><!DOCTYPE svg PUBLIC "-//W3C//DTD SVG 1.1//EN" "http://www.w3.org/Graphics/SVG/1.1/DTD/svg11.dtd"><svg width="100%" height="100%" viewBox="0 0 420 80" version="1.1" xmlns="http://www.w3.org/2000/svg" xmlns:xlink="http://www.w3.org/1999/xlink" xml:space="preserve" style="fill-rule:evenodd;clip-rule:evenodd;stroke-linejoin:round;stroke-miterlimit:1.41421;"><g><rect x="0" y="0" width="420" height="56" style="fill:#f79433;"/><rect x="0" y="56" width="420" height="24" style="fill:#4e8dd8;"/><g><path d="M75.145,70.819c2.37,-3.097 4.173,-6.921 5.111,-11.365c0.91,-4.318 1.498,-9.261 1.498,-14.692l0,-44.762l-62.754,0l0,44.762c0,2.628 0.244,5.333 0.407,8.035c0.168,2.782 0.674,5.515 1.345,8.118c0.68,2.644 1.739,5.173 3.067,7.517c1.363,2.405 3.263,4.526 5.609,6.303c2.319,1.755 5.245,3.163 8.677,4.172c1.617,0.478 3.416,1.093 5.354,1.093l13.856,0c3.071,0 5.797,-1.058 8.131,-2.001c4.042,-1.631 7.305,-4.049 9.699,-7.18Z" style="fill:#fff;fill-rule:nonzero;"/><path d="M151.481,18.701l0,-18.701l-62.754,-0.022l0,18.723l22.246,0l0.02,61.299l17.93,0l-0.02,-61.299l22.578,0Z" style="fill:#fff;fill-rule:nonzero;"/><path d="M229.926,39.999c0,-22.051 -16.979,-39.992 -37.852,-39.992c-20.872,0 -37.851,17.942 -37.851,39.992c0,22.054 16.979,39.994 37.851,39.994c20.873,0 37.852,-17.94 37.852,-39.994Z" style="fill:#fff;fill-rule:nonzero;"/><path d="M269.238,50.909c9.717,0 17.181,-2.066 22.183,-6.395c5.087,-4.399 7.667,-10.942 7.667,-19.575c0,-3.257 -0.393,-5.962 -1.167,-8.476c-0.778,-2.528 -1.883,-4.934 -3.281,-6.814c-1.401,-1.882 -3.098,-3.458 -5.045,-4.703c-1.895,-1.21 -4.003,-2.198 -6.264,-2.943c-2.239,-0.737 -4.64,-1.263 -7.139,-1.56c-2.464,-0.292 -5.016,-0.443 -7.587,-0.443l-29.468,0l0,80l17.93,0l0,-29.091l12.171,0Z" style="fill:#fff;fill-rule:nonzero;"/><rect x="304.879" y="0" width="17.93" height="80" style="fill:#fff;"/><path d="M362.589,0l-29.477,80l75.888,0l-31.247,-80l-15.164,0Z" style="fill:#fff;fill-rule:nonzero;"/></g></g></svg>